<svg id="Layer_1" xmlns="http://www.w3.org/2000/svg" version="1.1" viewBox="0 0 32 52">
  <path class="st1" fill="#ffbf00" d="M0,0h32v52l-16-4L0,52V0Z"/>
  <path class="st0" fill="#a10e0e" d="M24.2,21c0-1.4-.3-2.8-1-4-.7-1.2-1.6-2.2-2.8-3-1.2-.7-2.5-1.2-3.9-1.3-1.4,0-2.8.2-4,.8-1.3.6-2.3,1.5-3.2,2.6-.8,1.1-1.3,2.4-1.5,3.8-.2,1.4,0,2.8.5,4.1.5,1.3,1.3,2.4,2.4,3.3v7.1c0,.1,0,.3,0,.4,0,.1.2.2.3.3.1,0,.2.1.4.1.1,0,.3,0,.4,0l4.2-2.1,4.2,2.1c.1,0,.2,0,.3,0,.2,0,.4,0,.5-.2.1-.1.2-.3.2-.5v-7.1c.9-.8,1.7-1.7,2.2-2.8.5-1.1.8-2.3.8-3.5ZM9.2,21c0-1.3.4-2.6,1.1-3.8.7-1.1,1.8-2,3-2.5,1.2-.5,2.6-.6,3.9-.4,1.3.3,2.5.9,3.5,1.8.9.9,1.6,2.1,1.8,3.5.3,1.3.1,2.7-.4,3.9-.5,1.2-1.4,2.3-2.5,3-1.1.7-2.4,1.1-3.8,1.1-1.8,0-3.5-.7-4.8-2-1.3-1.3-2-3-2-4.8ZM10.8,21c0-1,.3-2.1.9-2.9.6-.9,1.4-1.5,2.4-1.9,1-.4,2-.5,3-.3s2,.7,2.7,1.4c.7.7,1.2,1.7,1.4,2.7.2,1,0,2.1-.3,3-.4,1-1.1,1.8-1.9,2.4-.9.6-1.9.9-2.9.9-1.4,0-2.7-.6-3.7-1.5-1-1-1.5-2.3-1.5-3.7Z"/>
</svg>